<svg class="globe" viewBox="0 0 675 662" fill="none" xmlns="http://www.w3.org/2000/svg">
<g id="Icons">
<circle id="back_ellipse" cx="211" cy="263" r="211" fill="url(#paint0_linear)"/>
<circle id="middle_ellipse" cx="431" cy="478" r="147" fill="url(#paint1_linear)"/>
<circle id="front_ellipse" cx="506.5" cy="231.5" r="168.5" fill="url(#paint2_linear)"/>
<g id="globe" filter="url(#filter0_d)">
<g id="Group">
<path id="Vector" fill-rule="evenodd" clip-rule="evenodd" d="M352.5 162C405.941 162 457.193 183.229 494.982 221.018C532.771 258.807 554 310.059 554 363.5C554 416.941 532.771 468.193 494.982 505.982C457.193 543.771 405.941 565 352.5 565C299.059 565 247.807 543.771 210.018 505.982C172.229 468.193 151 416.941 151 363.5C151 310.059 172.229 258.807 210.018 221.018C247.807 183.229 299.059 162 352.5 162ZM504.214 286C484.332 247.343 450.5 217.689 409.571 203.044C423.335 229.084 433.286 256.984 439.114 286H504.214ZM522.256 378.845C522.752 373.745 523 368.624 523 363.5C522.969 347.769 520.747 332.118 516.397 317H443.795C444.787 327.261 445.5 337.584 445.5 348C445.436 368.827 443.297 389.597 439.114 410H516.397C519.342 399.801 521.295 389.385 522.287 378.845H522.256ZM412.671 378.845L412.857 377.264C413.915 367.545 414.463 357.777 414.5 348C414.292 337.631 413.505 327.281 412.144 317H292.856C291.483 327.28 290.697 337.63 290.5 348C290.576 368.872 292.999 389.669 297.723 410H407.277C409.664 399.708 411.462 389.323 412.671 378.845ZM406.719 286C399.416 253.213 386.235 222.02 367.814 193.93C362.73 193.496 357.646 193 352.5 193C349.271 193.016 346.044 193.171 342.828 193.465L337.186 193.93L337 194.24C318.677 222.247 305.56 253.332 298.281 286H406.719ZM265.886 286C271.832 257.004 281.917 229.014 295.832 202.889C254.726 217.484 220.733 247.208 200.786 286H265.886ZM188.603 317C184.26 332.12 182.037 347.769 182 363.5C182.037 379.231 184.26 394.88 188.603 410H265.886C261.683 389.6 259.544 368.829 259.5 348C259.5 337.584 260.213 327.261 261.205 317H188.603ZM273.977 441H200.817C212.535 463.89 229.266 483.841 249.764 499.369C270.262 514.897 293.998 525.6 319.206 530.683C299.366 503.439 284.09 473.149 273.977 441ZM352.5 522.964C372.323 498.447 387.818 470.728 398.318 441H306.682C317.183 470.728 332.678 498.447 352.5 522.964ZM431.023 441C420.91 473.149 405.634 503.439 385.794 530.683C411 525.596 434.735 514.891 455.232 499.363C475.729 483.836 492.461 463.887 504.183 441H431.023Z" fill="#998FF7"/>
</g>
</g>
<g>
  <path class="sass" id="Vector_2" d="M205.605 493.443C202.266 493.46 199.363 494.264 196.932 495.453C196.04 493.687 195.149 492.114 194.991 490.959C194.816 489.613 194.607 488.791 194.816 487.182C195.026 485.574 195.971 483.283 195.953 483.108C195.936 482.933 195.743 482.111 193.82 482.094C191.896 482.076 190.235 482.461 190.043 482.968C189.85 483.475 189.483 484.63 189.238 485.818C188.906 487.567 185.391 493.809 183.381 497.079C182.733 495.803 182.174 494.684 182.051 493.792C181.877 492.446 181.667 491.624 181.877 490.015C182.087 488.407 183.031 486.116 183.013 485.941C182.996 485.766 182.803 484.944 180.88 484.927C178.956 484.909 177.295 485.294 177.103 485.801C176.91 486.308 176.7 487.497 176.298 488.651C175.896 489.806 171.227 500.228 170.003 502.92C169.509 504.01 168.99 505.089 168.447 506.155C168.447 506.155 168.429 506.208 168.377 506.295C168.206 506.63 168.032 506.962 167.853 507.292V507.309C167.59 507.782 167.31 508.218 167.171 508.218C167.066 508.218 166.873 506.96 167.205 505.246C167.905 501.626 169.566 495.996 169.549 495.803C169.549 495.698 169.863 494.719 168.465 494.212C167.1 493.705 166.611 494.544 166.488 494.544C166.366 494.544 166.278 494.841 166.278 494.841C166.278 494.841 167.8 488.511 163.376 488.511C160.613 488.511 156.801 491.537 154.913 494.264C152.766 495.433 150.621 496.604 148.478 497.779C147.446 498.356 146.379 498.933 145.383 499.475C145.313 499.406 145.243 499.318 145.173 499.248C139.822 493.53 129.925 489.491 130.344 481.814C130.502 479.017 131.463 471.672 149.352 462.754C164.075 455.497 175.791 457.508 177.82 461.967C180.722 468.332 171.542 480.153 156.329 481.866C150.524 482.514 147.481 480.275 146.712 479.436C145.907 478.562 145.785 478.509 145.487 478.684C144.998 478.947 145.313 479.733 145.487 480.188C145.942 481.377 147.813 483.475 150.978 484.507C153.776 485.416 160.578 485.924 168.814 482.741C178.029 479.174 185.234 469.259 183.118 460.953C181.002 452.525 167.013 449.744 153.776 454.448C145.907 457.246 137.374 461.653 131.236 467.388C123.944 474.207 122.79 480.136 123.262 482.619C124.959 491.432 137.112 497.167 141.973 501.416C141.728 501.556 141.5 501.679 141.308 501.784C138.878 502.99 129.61 507.834 127.302 512.957C124.679 518.763 127.722 522.925 129.732 523.484C135.975 525.215 142.392 522.103 145.837 516.962C149.282 511.821 148.862 505.141 147.271 502.081C147.254 502.046 147.236 502.011 147.201 501.976C147.831 501.609 148.478 501.224 149.107 500.857C150.264 500.173 151.436 499.514 152.622 498.881C152.027 500.507 151.59 502.448 151.38 505.246C151.118 508.533 152.464 512.8 154.23 514.478C155.018 515.213 155.944 515.231 156.539 515.231C158.602 515.231 159.529 513.517 160.561 511.488C161.82 509.006 162.956 506.12 162.956 506.12C162.956 506.12 161.54 513.919 165.387 513.919C166.786 513.919 168.202 512.1 168.832 511.174V511.191C168.832 511.191 168.867 511.139 168.937 511.016C169.077 510.789 169.164 510.649 169.164 510.649V510.614C169.724 509.635 170.983 507.414 172.854 503.724C175.267 498.968 177.593 493.023 177.593 493.023C177.593 493.023 177.803 494.474 178.519 496.887C178.939 498.304 179.813 499.86 180.513 501.364C179.953 502.151 179.603 502.588 179.603 502.588L179.621 502.605C179.166 503.2 178.677 503.847 178.134 504.477C176.228 506.75 173.955 509.355 173.64 510.107C173.273 510.999 173.361 511.646 174.06 512.171C174.567 512.555 175.476 512.607 176.403 512.555C178.117 512.433 179.324 512.013 179.918 511.751C180.845 511.419 181.929 510.911 182.943 510.159C184.814 508.778 185.951 506.802 185.846 504.197C185.793 502.763 185.321 501.329 184.744 499.982C184.919 499.738 185.076 499.493 185.252 499.248C188.207 494.929 190.497 490.19 190.497 490.19C190.497 490.19 190.707 491.641 191.424 494.055C191.774 495.279 192.491 496.608 193.12 497.902C190.34 500.157 188.626 502.78 188.014 504.494C186.913 507.677 187.769 509.11 189.396 509.442C190.13 509.6 191.179 509.25 191.949 508.918C192.928 508.603 194.082 508.061 195.184 507.257C197.055 505.875 198.856 503.952 198.751 501.347C198.698 500.157 198.384 498.986 197.946 497.849C200.307 496.87 203.35 496.328 207.231 496.782C215.555 497.762 217.199 502.955 216.884 505.141C216.569 507.327 214.821 508.516 214.244 508.883C213.666 509.25 213.474 509.373 213.527 509.635C213.597 510.02 213.876 510.002 214.366 509.932C215.048 509.81 218.738 508.166 218.895 504.144C219.158 499.003 214.261 493.39 205.605 493.443ZM141.396 515.091C138.633 518.098 134.786 519.235 133.125 518.273C131.341 517.241 132.041 512.8 135.433 509.618C137.496 507.677 140.154 505.875 141.92 504.774C142.322 504.529 142.917 504.179 143.634 503.742C143.756 503.672 143.826 503.637 143.826 503.637L144.246 503.375C145.487 507.921 144.299 511.926 141.396 515.091ZM161.505 501.416C160.543 503.76 158.532 509.757 157.308 509.425C156.259 509.145 155.612 504.599 157.098 500.105C157.85 497.849 159.441 495.156 160.368 494.107C161.872 492.428 163.533 491.868 163.935 492.551C164.443 493.443 162.099 499.947 161.505 501.416ZM178.1 509.355C177.697 509.565 177.313 509.705 177.138 509.6C177.015 509.53 177.313 509.25 177.313 509.25C177.313 509.25 179.394 507.012 180.215 505.998C180.688 505.403 181.247 504.704 181.842 503.917V504.144C181.842 506.82 179.253 508.621 178.099 509.355H178.1ZM190.899 506.435C190.602 506.225 190.655 505.526 191.651 503.34C192.036 502.483 192.945 501.049 194.502 499.668C194.676 500.227 194.799 500.769 194.781 501.276C194.764 504.651 192.351 505.91 190.899 506.435Z" fill="#CD6799"/>
</g>
<g class="js">
<path id="Vector_3" d="M100.625 172.625H221.375V293.375H100.625V172.625Z" fill="#F5DE19"/>
<path id="Vector_4" d="M181.739 266.961C182.768 269.05 184.366 270.807 186.35 272.028C188.334 273.249 190.622 273.884 192.951 273.861C197.652 273.861 200.658 271.51 200.658 268.254C200.658 264.373 197.57 262.984 192.395 260.72L189.557 259.504C181.364 256.015 175.93 251.647 175.93 242.41C175.93 233.901 182.399 227.419 192.546 227.419C195.831 227.182 199.113 227.917 201.983 229.533C204.852 231.149 207.183 233.574 208.683 236.506L199.812 242.177C199.235 240.723 198.229 239.479 196.928 238.611C195.627 237.742 194.093 237.289 192.529 237.312C191.846 237.244 191.157 237.318 190.505 237.531C189.853 237.744 189.253 238.09 188.742 238.548C188.231 239.005 187.821 239.564 187.538 240.189C187.256 240.814 187.106 241.491 187.099 242.177C187.099 245.579 189.208 246.959 194.077 249.077L196.914 250.293C206.557 254.428 212.008 258.642 212.008 268.116C212.008 278.333 203.983 283.93 193.206 283.93C189.007 284.198 184.82 283.244 181.151 281.185C177.481 279.126 174.486 276.049 172.527 272.325L181.739 266.961ZM141.654 267.944C143.435 271.105 145.057 273.779 148.955 273.779C152.681 273.779 155.036 272.321 155.036 266.65V228.066H166.382V266.801C166.382 278.548 159.482 283.896 149.438 283.896C145.888 284.09 142.362 283.205 139.324 281.358C136.286 279.511 133.878 276.787 132.417 273.546L141.654 267.944Z" fill="black"/>
</g>
<g class="html">
<path id="Vector_5" d="M495.608 642.804L486.62 542H585.38L576.38 642.788L535.94 654L495.608 642.804Z" fill="#E44F26"/>
<path id="Vector_6" d="M536 645.432L568.68 636.372L576.368 550.244H536V645.432Z" fill="#F1662A"/>
<path id="Vector_7" d="M536 587.628H519.64L518.512 574.968H536V562.604H505L505.296 565.924L508.332 599.992H536V587.628Z" fill="#EBEBEB"/>
<path id="Vector_8" d="M536 619.736L535.944 619.752L522.176 616.036L521.296 606.176H508.884L510.616 625.584L535.944 632.616L536 632.6V619.736Z" fill="#EBEBEB"/>
<path id="Vector_9" d="M535.956 587.628V599.992H551.18L549.748 616.028L535.956 619.748V632.612L561.304 625.584L561.488 623.496L564.392 590.948L564.696 587.628H535.956Z" fill="white"/>
<path id="Vector_10" d="M535.956 562.604V574.968H565.82L566.068 572.192L566.632 565.924L566.928 562.604H535.956Z" fill="white"/>
</g>
<g class="css">
<path id="Vector_11" d="M553.706 264.603L546.968 189H621.032L614.285 264.591L583.955 273L553.706 264.603Z" fill="#1572B6"/>
<path id="Vector_12" d="M584 266.574L608.51 259.779L614.276 195.183H584V266.574Z" fill="#33A9DC"/>
<path id="Vector_13" d="M584 222.573H596.27L597.116 213.078H584V203.805H607.25L607.028 206.292L604.751 231.846H584V222.573Z" fill="white"/>
<path id="Vector_14" d="M584.057 246.654L584.015 246.666L573.689 243.876L573.029 236.481H563.72L565.019 251.04L584.012 256.314L584.057 256.302V246.654Z" fill="#EBEBEB"/>
<path id="Vector_15" d="M595.481 231.453L594.365 243.87L584.024 246.66V256.308L603.032 251.04L603.173 249.474L604.784 231.453H595.481Z" fill="white"/>
<path id="Vector_16" d="M584.033 203.805V213.078H561.635L561.449 210.993L561.026 206.292L560.804 203.805H584.033Z" fill="#EBEBEB"/>
<path id="Vector_17" d="M584 222.573V231.846H573.803L573.617 229.761L573.197 225.06L572.975 222.573H584Z" fill="#EBEBEB"/>
</g>
<g class="react" clip-path="url(#clip0)">
<path id="Vector_18" d="M471.219 41.8144C469.676 41.285 468.12 40.7945 466.552 40.3435C466.815 39.2673 467.058 38.2042 467.273 37.1597C470.806 20.0084 468.496 6.1909 460.607 1.64152C453.042 -2.71981 440.671 1.82787 428.178 12.7012C426.946 13.7747 425.742 14.8792 424.567 16.0135C423.78 15.2592 422.979 14.5195 422.165 13.7949C409.071 2.16885 395.946 -2.73113 388.065 1.83127C380.507 6.20619 378.269 19.1956 381.45 35.4503C381.767 37.0602 382.124 38.6617 382.522 40.2534C380.664 40.7813 378.871 41.3432 377.156 41.9413C361.804 47.2939 352 55.6818 352 64.3823C352 73.3684 362.525 82.3816 378.515 87.8469C379.811 88.2881 381.118 88.697 382.435 89.0731C382.007 90.7875 381.627 92.5134 381.296 94.2489C378.264 110.222 380.632 122.904 388.169 127.251C395.954 131.741 409.02 127.127 421.742 116.005C422.773 115.101 423.782 114.171 424.767 113.217C426.04 114.445 427.347 115.638 428.687 116.793C441.011 127.397 453.182 131.679 460.711 127.32C468.489 122.818 471.017 109.194 467.735 92.6177C467.476 91.3191 467.186 90.0269 466.865 88.7423C467.783 88.4705 468.684 88.1907 469.562 87.8995C486.184 82.3924 497 73.4885 497 64.3823C497 55.6501 486.879 47.2055 471.219 41.8144ZM467.614 82.0202C466.821 82.2825 466.007 82.5357 465.178 82.7821C463.343 76.9724 460.867 70.7952 457.836 64.4124C460.728 58.1819 463.109 52.0834 464.893 46.3117C466.376 46.7411 467.815 47.1936 469.203 47.6711C482.621 52.2907 490.806 59.1199 490.806 64.3823C490.806 69.9875 481.966 77.2641 467.614 82.0202ZM461.659 93.8207C463.11 101.15 463.316 107.777 462.355 112.958C461.492 117.613 459.755 120.717 457.608 121.96C453.038 124.605 443.266 121.167 432.727 112.098C431.481 111.023 430.265 109.915 429.081 108.773C433.167 104.304 437.25 99.1098 441.236 93.3404C448.245 92.7185 454.868 91.7013 460.873 90.313C461.169 91.5064 461.432 92.6766 461.659 93.8207ZM401.434 121.503C396.969 123.079 393.413 123.124 391.264 121.885C386.69 119.247 384.789 109.064 387.382 95.4044C387.691 93.7903 388.044 92.1851 388.441 90.5905C394.38 91.9046 400.954 92.8494 407.981 93.4192C411.993 99.0645 416.194 104.253 420.428 108.797C419.528 109.668 418.607 110.516 417.666 111.341C412.04 116.259 406.402 119.748 401.434 121.503ZM380.519 81.9857C373.448 79.5688 367.609 76.4281 363.607 73.0008C360.01 69.9212 358.195 66.8632 358.195 64.3823C358.195 59.1023 366.066 52.3677 379.195 47.7906C380.788 47.2355 382.456 46.7116 384.186 46.22C386.001 52.1219 388.381 58.2929 391.253 64.533C388.343 70.8654 385.929 77.135 384.097 83.1066C382.895 82.7623 381.702 82.3886 380.519 81.9857ZM387.53 34.2603C384.805 20.3341 386.614 9.82892 391.169 7.1923C396.019 4.38406 406.746 8.38799 418.052 18.427C418.789 19.0831 419.515 19.7525 420.228 20.4349C416.015 24.9588 411.852 30.1091 407.875 35.7211C401.056 36.3532 394.528 37.3682 388.526 38.7281C388.157 37.2476 387.824 35.7581 387.53 34.2609V34.2603ZM450.076 49.7051C448.658 47.2564 447.188 44.8386 445.667 42.4534C450.293 43.0385 454.726 43.815 458.888 44.7643C457.639 48.7699 456.081 52.9574 454.248 57.2507C452.908 54.708 451.517 52.1923 450.076 49.7051ZM424.57 24.8619C427.427 27.9573 430.288 31.413 433.103 35.1626C427.393 34.8929 421.674 34.8918 415.965 35.1592C418.782 31.4441 421.668 27.993 424.57 24.8619ZM398.9 49.7475C397.477 52.2147 396.112 54.7148 394.806 57.2456C393.003 52.9676 391.459 48.7609 390.199 44.6986C394.336 43.7731 398.748 43.0164 403.345 42.442C401.806 44.8419 400.324 47.2775 398.9 49.747V49.7475ZM403.477 86.7633C398.727 86.2332 394.249 85.5155 390.113 84.6149C391.394 80.4802 392.971 76.184 394.814 71.8142C396.125 74.3469 397.495 76.8485 398.924 79.3168C400.393 81.8543 401.915 84.3397 403.477 86.7633ZM424.741 104.339C421.804 101.172 418.876 97.6672 416.016 93.8983C418.793 94.0071 421.623 94.0626 424.5 94.0626C427.456 94.0626 430.377 93.9963 433.253 93.8683C430.429 97.7052 427.578 101.215 424.741 104.339ZM454.306 71.591C456.244 76.009 457.878 80.2825 459.175 84.3465C454.971 85.306 450.432 86.0785 445.649 86.6523C447.182 84.2227 448.666 81.7629 450.1 79.2743C451.559 76.7447 452.961 74.183 454.306 71.591ZM444.735 76.1795C442.538 79.995 440.219 83.7381 437.779 87.4028C433.359 87.7158 428.93 87.8713 424.5 87.8689C419.987 87.8689 415.598 87.7285 411.372 87.4543C408.868 83.7981 406.504 80.0484 404.284 76.2134H404.285C402.076 72.3987 400.012 68.5015 398.098 64.5302C400.007 60.5579 402.064 56.6588 404.266 52.8412L404.266 52.8418C406.467 49.0232 408.812 45.2896 411.297 41.6491C415.609 41.3228 420.03 41.1529 424.499 41.1529H424.5C428.989 41.1529 433.417 41.3245 437.728 41.653C440.187 45.2881 442.518 49.0089 444.714 52.8084C446.924 56.6176 449.008 60.4976 450.965 64.4424C449.029 68.4275 446.95 72.3423 444.735 76.1795ZM457.513 7.00765C462.368 9.80797 464.257 21.1004 461.206 35.9091C461.011 36.8539 460.792 37.8162 460.555 38.7921C454.538 37.4033 448.006 36.3707 441.167 35.729C437.182 30.0553 433.054 24.897 428.909 20.4315C429.996 19.3845 431.108 18.3646 432.244 17.3729C442.95 8.05721 452.955 4.37896 457.513 7.00765ZM424.5 51.4343C431.651 51.4343 437.448 57.2315 437.448 64.3823C437.448 71.5332 431.651 77.3304 424.5 77.3304C417.349 77.3304 411.552 71.5332 411.552 64.3823C411.552 57.2315 417.349 51.4343 424.5 51.4343Z" fill="#00D8FF"/>
</g>
</g>
<defs>
<filter id="filter0_d" x="101" y="129" width="503" height="477" filterUnits="userSpaceOnUse" color-interpolation-filters="sRGB">
<feFlood flood-opacity="0" result="BackgroundImageFix"/>
<feColorMatrix in="SourceAlpha" type="matrix" values="0 0 0 0 0 0 0 0 0 0 0 0 0 0 0 0 0 0 127 0"/>
<feOffset dy="4"/>
<feGaussianBlur stdDeviation="2"/>
<feColorMatrix type="matrix" values="0 0 0 0 0 0 0 0 0 0 0 0 0 0 0 0 0 0 0.25 0"/>
<feBlend mode="normal" in2="BackgroundImageFix" result="effect1_dropShadow"/>
<feBlend mode="normal" in="SourceGraphic" in2="effect1_dropShadow" result="shape"/>
</filter>
<linearGradient id="paint0_linear" x1="56.5" y1="76.5" x2="331" y2="437.5" gradientUnits="userSpaceOnUse">
<stop stop-color="#864EE0"/>
<stop offset="1" stop-color="#524FE2"/>
</linearGradient>
<linearGradient id="paint1_linear" x1="284" y1="331" x2="448.5" y2="637.5" gradientUnits="userSpaceOnUse">
<stop stop-color="#F6B196"/>
<stop offset="1" stop-color="#F282C6"/>
</linearGradient>
<linearGradient id="paint2_linear" x1="556" y1="63" x2="453" y2="382" gradientUnits="userSpaceOnUse">
<stop stop-color="#F8C40D"/>
<stop offset="1" stop-color="#B631E4"/>
</linearGradient>
<clipPath id="clip0">
<rect width="145" height="129.141" fill="white" transform="translate(352)"/>
</clipPath>
</defs>
</svg>
