<svg width="28" height="36" viewBox="0 0 28 36" fill="none" xmlns="http://www.w3.org/2000/svg">
<path d="M6 8C6 9.58225 6.46919 11.129 7.34824 12.4446C8.22729 13.7602 9.47672 14.7855 10.9385 15.391C12.4003 15.9965 14.0089 16.155 15.5607 15.8463C17.1126 15.5376 18.538 14.7757 19.6569 13.6569C20.7757 12.538 21.5376 11.1126 21.8463 9.56072C22.155 8.00887 21.9965 6.40034 21.391 4.93853C20.7855 3.47672 19.7602 2.22729 18.4446 1.34824C17.129 0.469192 15.5823 0 14 0C11.8783 0 9.84344 0.842854 8.34315 2.34315C6.84285 3.84344 6 5.87827 6 8ZM18 8C18 8.79113 17.7654 9.56449 17.3259 10.2223C16.8864 10.8801 16.2616 11.3928 15.5307 11.6955C14.7998 11.9983 13.9956 12.0775 13.2196 11.9231C12.4437 11.7688 11.731 11.3878 11.1716 10.8284C10.6122 10.269 10.2312 9.55628 10.0769 8.78036C9.92252 8.00444 10.0017 7.20017 10.3045 6.46927C10.6072 5.73836 11.1199 5.11365 11.7777 4.67412C12.4355 4.2346 13.2089 4 14 4C15.0609 4 16.0783 4.42143 16.8284 5.17157C17.5786 5.92172 18 6.93913 18 8Z" fill="#180C23"/>
<path d="M14 30.3399L2.8 19.1599L0 21.9999L14 35.9999L28 21.9999L25.18 19.1799L14 30.3399Z" fill="#180C23"/>
</svg>
